<?xml version="1.0" encoding="utf-8"?>
<!-- Generator: Adobe Illustrator 23.0.1, SVG Export Plug-In . SVG Version: 6.00 Build 0)  -->
<svg version="1.0" id="Layer_1" xmlns="http://www.w3.org/2000/svg" xmlns:xlink="http://www.w3.org/1999/xlink" x="0px" y="0px"
	 viewBox="0 0 500 500" style="enable-background:new 0 0 500 500;" xml:space="preserve">
<style type="text/css">
	.st0{fill:#00C44C;}
	.st1{clip-path:url(#SVGID_2_);}
	.st2{clip-path:url(#SVGID_4_);fill:#FFFFFF;}
</style>
<path class="st0" d="M442.7,174.2l-30.5-17.8l-0.2-35.4c-0.1-18.1-14.7-32.8-32.9-32.9L343.7,88l-17.8-30.6c-9.1-15.6-29.2-21-45-12
	l-30.7,17.6l-30.7-17.6c-15.7-9-35.8-3.6-45,12l-17.9,30.5l-35.3,0.2c-18.2,0.2-32.8,14.8-33,32.9l-0.2,35.4l-30.5,17.8
	c-15.7,9.2-21.1,29.2-12,45l17.5,30.7l-17.5,30.7c-9.1,15.7-3.7,35.8,12,45l30.5,17.8l0.2,35.4c0.2,18.1,14.8,32.8,33,32.9l35.3,0.2
	l17.9,30.6c9.1,15.7,29.2,21,45,12l30.7-17.6l30.7,17.6c5.2,2.9,10.8,4.4,16.4,4.4c11.4,0,22.5-5.9,28.6-16.4l17.8-30.6l35.4-0.2
	c18.2-0.1,32.8-14.8,32.9-32.9l0.2-35.4l30.5-17.8c15.7-9.2,21-29.2,12-45l-17.6-30.7l17.6-30.7
	C463.8,203.5,458.3,183.4,442.7,174.2L442.7,174.2z"/>
<g>
	<g>
		<defs>
			<rect id="SVGID_1_" x="115.6" y="146.4" width="269.2" height="207.1"/>
		</defs>
		<clipPath id="SVGID_2_">
			<use xlink:href="#SVGID_1_"  style="overflow:visible;"/>
		</clipPath>
		<g class="st1">
			<defs>
				<rect id="SVGID_3_" x="115.6" y="146.4" width="269.2" height="207.1"/>
			</defs>
			<clipPath id="SVGID_4_">
				<use xlink:href="#SVGID_3_"  style="overflow:visible;"/>
			</clipPath>
			<path class="st2" d="M118.6,260.3c-2.1-2.1-3.1-5.2-3.1-7.3s1-5.2,3.1-7.2l14.5-14.5c4.2-4.2,10.4-4.2,14.5,0l1,1.1l57,61.1
				c2.1,2.1,5.1,2.1,7.2,0l138.7-143.9h1.1c4.2-4.1,10.4-4.1,14.5,0l14.5,14.5c4.2,4.2,4.2,10.4,0,14.5L216,350.4
				c-2.1,2.1-4.2,3.1-7.3,3.1c-3.1,0-5.2-1-7.2-3.1l-80.8-87L118.6,260.3z"/>
		</g>
	</g>
</g>
</svg>
