<?xml version="1.0" encoding="utf-8"?>
<!-- Generator: Adobe Illustrator 23.0.1, SVG Export Plug-In . SVG Version: 6.00 Build 0)  -->
<svg version="1.0" id="Layer_1" xmlns="http://www.w3.org/2000/svg" xmlns:xlink="http://www.w3.org/1999/xlink" x="0px" y="0px"
	 viewBox="0 0 1000 500" style="enable-background:new 0 0 1000 500;" xml:space="preserve">
<style type="text/css">
	.st0{fill:#7045AF;}
	.st1{fill:#FFFFFF;}
</style>
<g>
	<path class="st0" d="M750,500H250C111.9,500,0,388.1,0,250v0C0,111.9,111.9,0,250,0h500c138.1,0,250,111.9,250,250v0
		C1000,388.1,888.1,500,750,500z"/>
</g>
<g>
	<path class="st1" d="M146.9,249.1H95.7v58.6H68.3v-140h27.4v57h51.2v-57h27.4v140h-27.4V249.1z"/>
	<path class="st1" d="M194.1,237.7c0-23.3,5.1-41.3,15.4-53.9c10.3-12.6,24.9-18.9,44-18.9c10,0,18.7,1.7,26.2,5.2
		c7.5,3.5,13.7,8.4,18.6,14.8c4.9,6.4,8.6,14.1,11,23c2.4,8.9,3.6,18.9,3.6,29.8c0,23.3-5.2,41.3-15.5,53.9
		c-10.3,12.6-25,18.9-43.9,18.9c-10.1,0-18.9-1.7-26.4-5.2c-7.5-3.5-13.6-8.4-18.5-14.8c-4.9-6.4-8.5-14.1-10.9-23
		C195.3,258.6,194.1,248.6,194.1,237.7z M222.9,237.7c0,7.1,0.6,13.6,1.8,19.5c1.2,5.9,3,11,5.5,15.3c2.5,4.3,5.6,7.6,9.5,10
		c3.9,2.4,8.5,3.6,13.8,3.6c9.7,0,17.3-3.8,22.6-11.4c5.3-7.6,8-19.9,8-37c0-6.8-0.6-13.1-1.7-19c-1.1-5.9-2.9-11-5.3-15.4
		c-2.4-4.4-5.5-7.8-9.4-10.3c-3.9-2.5-8.6-3.7-14.2-3.7c-9.7,0-17.3,3.9-22.6,11.7C225.6,208.8,222.9,221,222.9,237.7z"/>
	<path class="st1" d="M426.7,200.3c0,3.5-0.4,6.9-1.3,10.4c-0.9,3.5-2.3,6.6-4.3,9.5c-2,2.9-4.6,5.4-7.8,7.6
		c-3.2,2.2-7,3.8-11.5,4.9v1.2c4,0.7,7.8,1.8,11.3,3.4s6.7,3.8,9.4,6.6c2.7,2.8,4.7,6.2,6.3,10.2c1.5,4,2.3,8.7,2.3,14.2
		c0,7.2-1.5,13.4-4.6,18.7c-3.1,5.3-7.2,9.6-12.3,12.9c-5.1,3.3-11,5.8-17.5,7.4c-6.5,1.6-13.3,2.4-20.2,2.4c-2.3,0-5.2,0-8.7,0
		c-3.5,0-7.3-0.1-11.4-0.3c-4.1-0.2-8.2-0.5-12.4-0.9s-8-1-11.5-1.8v-138c2.5-0.4,5.4-0.8,8.7-1.2c3.3-0.4,6.8-0.7,10.5-1
		c3.7-0.3,7.6-0.5,11.5-0.6c3.9-0.1,7.8-0.2,11.7-0.2c6.5,0,12.9,0.5,19.1,1.5s11.7,2.8,16.6,5.3c4.9,2.5,8.8,6.1,11.7,10.6
		C425.2,187.6,426.7,193.4,426.7,200.3z M368.1,226.5c1.9,0,4-0.1,6.5-0.2c2.5-0.1,4.5-0.3,6.1-0.6c5.1-1.6,9.4-4,13.1-7.1
		c3.7-3.2,5.5-7.3,5.5-12.5c0-3.4-0.7-6.3-2-8.5c-1.3-2.2-3.1-4-5.3-5.3s-4.7-2.2-7.5-2.8c-2.8-0.5-5.7-0.8-8.8-0.8
		c-3.5,0-6.7,0.1-9.6,0.2c-2.9,0.1-5.2,0.3-6.8,0.6v37H368.1z M376.8,286.7c3.3,0,6.4-0.4,9.5-1.2c3.1-0.8,5.8-2,8.2-3.7
		c2.4-1.7,4.3-3.7,5.7-6.2c1.4-2.5,2.2-5.5,2.2-8.9c0-4.4-0.9-7.8-2.6-10.3c-1.7-2.5-3.9-4.5-6.7-5.8c-2.8-1.4-5.8-2.3-9.2-2.7
		c-3.4-0.4-6.8-0.6-10.2-0.6h-14.3v38.2c0.7,0.3,1.7,0.5,3.1,0.6c1.4,0.1,3,0.2,4.6,0.3c1.6,0.1,3.3,0.1,5.1,0.2
		C373.9,286.7,375.5,286.7,376.8,286.7z"/>
	<path class="st1" d="M532.3,230.1l1.6-18.2h-1l-9.4,18.8l-52.2,77h-20.6v-140h27.4v76.2l-2,18.8h1.2l9.8-19.4l52.2-75.6h20.4v140
		h-27.4V230.1z"/>
	<path class="st1" d="M662.5,249.1h-51.2v58.6h-27.4v-140h27.4v57h51.2v-57h27.4v140h-27.4V249.1z"/>
	<path class="st1" d="M748.7,247.9h-7.2v59.8h-27.4v-140h27.4v62l6.4-2.8l38.6-59.2h31.2l-40.8,58.8l-10.8,7.6l11.2,7.8l46.6,65.8
		h-33.8L748.7,247.9z"/>
	<path class="st1" d="M903.7,276.7h-43l-10.6,31h-27.4l50.4-141h20.2l50.4,141h-28.8L903.7,276.7z M867.7,254.7h30l-10.4-31.2
		l-4.2-22h-1l-4.2,22.2L867.7,254.7z"/>
</g>
</svg>
