<?xml version="1.0" encoding="utf-8"?>
<!-- Generator: Adobe Illustrator 23.0.1, SVG Export Plug-In . SVG Version: 6.00 Build 0)  -->
<svg version="1.0" id="Layer_1" xmlns="http://www.w3.org/2000/svg" xmlns:xlink="http://www.w3.org/1999/xlink" x="0px" y="0px"
	 viewBox="0 0 1000 500" style="enable-background:new 0 0 1000 500;" xml:space="preserve">
<style type="text/css">
	.st0{fill:#DB2D43;}
	.st1{fill:#FFFFFF;}
</style>
<g>
	<path class="st0" d="M750,500H250C111.9,500,0,388.1,0,250v0C0,111.9,111.9,0,250,0h500c138.1,0,250,111.9,250,250v0
		C1000,388.1,888.1,500,750,500z"/>
</g>
<g>
	<path class="st1" d="M265.7,276.7h-43l-10.6,31h-27.4l50.4-141h20.2l50.4,141h-28.8L265.7,276.7z M229.7,254.7h30l-10.4-31.2
		l-4.2-22h-1l-4.2,22.2L229.7,254.7z"/>
	<path class="st1" d="M352.3,247.9h-7.2v59.8h-27.4v-140h27.4v62l6.4-2.8l38.6-59.2h31.2l-40.8,58.8l-10.8,7.6l11.2,7.8l46.6,65.8
		h-33.8L352.3,247.9z"/>
	<path class="st1" d="M562.7,332.7h-19.4l-3-25h-98.6v-140h27.4v115.6h48.2V167.7h27.4v115.6h18V332.7z"/>
	<path class="st1" d="M659.7,230.1l1.6-18.2h-1l-9.4,18.8l-52.2,77h-20.6v-140h27.4v76.2l-2,18.8h1.2l9.8-19.4l52.2-75.6h20.4v140
		h-27.4V230.1z"/>
	<path class="st1" d="M803.1,307.7h-27.4v-55.4l-14.4,3.8l-29.2,51.6h-31.8l28.8-46.6l12-8.6c-4.3-1.1-8.3-2.7-12-4.9
		c-3.7-2.2-7-5-9.8-8.5c-2.8-3.5-5-7.6-6.6-12.3c-1.6-4.7-2.4-10.1-2.4-16.1c0-8.4,1.5-15.5,4.4-21.2c2.9-5.7,7-10.4,12.2-13.9
		c5.2-3.5,11.4-6.1,18.6-7.6c7.2-1.5,15-2.3,23.4-2.3c2.3,0,4.9,0.1,7.8,0.2c2.9,0.1,6,0.3,9.1,0.6c3.1,0.3,6.2,0.6,9.2,1
		c3,0.4,5.7,0.9,8.1,1.6V307.7z M765.5,190.1c-3.6,0-7,0.3-10.2,1c-3.2,0.7-6,1.8-8.4,3.4c-2.4,1.6-4.3,3.8-5.7,6.6
		c-1.4,2.8-2.1,6.4-2.1,10.8c0,4.1,0.7,7.6,2,10.5c1.3,2.9,3.2,5.2,5.6,7c2.4,1.8,5.2,3.1,8.4,3.9c3.2,0.8,6.7,1.2,10.4,1.2h10.2
		v-43.4c-1.5-0.3-3-0.5-4.5-0.7C769.7,190.2,767.8,190.1,765.5,190.1z"/>
</g>
</svg>
