<?xml version="1.0" encoding="utf-8"?>
<!-- Generator: Adobe Illustrator 23.0.1, SVG Export Plug-In . SVG Version: 6.00 Build 0)  -->
<svg version="1.1" id="Layer_1" xmlns="http://www.w3.org/2000/svg" xmlns:xlink="http://www.w3.org/1999/xlink" x="0px" y="0px"
	 viewBox="0 0 1000 500" style="enable-background:new 0 0 1000 500;" xml:space="preserve">
<style type="text/css">
	.st0{fill:#BBBBBB;}
	.st1{enable-background:new    ;}
	.st2{fill:#FFFFFF;}
</style>
<g>
	<path class="st0" d="M750,500H250C111.9,500,0,388.1,0,250l0,0C0,111.9,111.9,0,250,0h500c138.1,0,250,111.9,250,250l0,0
		C1000,388.1,888.1,500,750,500z"/>
</g>
<g class="st1">
	<path class="st2" d="M112,249.4H80.5v36.1H63.7v-86.1h16.9v35.1H112v-35.1h16.9v86.1H112V249.4z"/>
	<path class="st2" d="M143.8,199.4h51.1v15h-34.2v20.1h31.1v15h-31.1v21h34.8v15h-51.7V199.4z"/>
	<path class="st2" d="M269.2,214.4h-25.1v71.1h-16.9v-71.1H202v-15h67.2V214.4z"/>
	<path class="st2" d="M362.1,219.4c0,2.1-0.3,4.3-0.8,6.4c-0.5,2.1-1.4,4.1-2.6,5.8c-1.2,1.8-2.8,3.3-4.8,4.7s-4.3,2.4-7.1,3v0.7
		c2.4,0.4,4.8,1.1,7,2.1s4.1,2.3,5.8,4.1s2.9,3.8,3.9,6.3c0.9,2.5,1.4,5.4,1.4,8.7c0,4.4-0.9,8.3-2.8,11.5c-1.9,3.2-4.4,5.9-7.6,7.9
		c-3.2,2.1-6.7,3.6-10.8,4.6s-8.2,1.5-12.4,1.5c-1.4,0-3.2,0-5.4,0c-2.2,0-4.5-0.1-7-0.2c-2.5-0.1-5-0.3-7.6-0.6s-4.9-0.6-7.1-1.1
		V200c1.6-0.2,3.3-0.5,5.4-0.7c2-0.2,4.2-0.5,6.5-0.6c2.3-0.2,4.7-0.3,7.1-0.4c2.4-0.1,4.8-0.1,7.2-0.1c4,0,7.9,0.3,11.8,0.9
		s7.2,1.7,10.2,3.3c3,1.6,5.4,3.7,7.2,6.5C361.2,211.6,362.1,215.2,362.1,219.4z M326,235.5c1.1,0,2.5,0,4-0.1
		c1.5-0.1,2.8-0.2,3.8-0.4c3.1-1,5.8-2.4,8.1-4.4c2.3-1.9,3.4-4.5,3.4-7.7c0-2.1-0.4-3.9-1.2-5.2c-0.8-1.4-1.9-2.5-3.3-3.3
		s-2.9-1.4-4.6-1.7c-1.7-0.3-3.5-0.5-5.4-0.5c-2.1,0-4.1,0-5.9,0.1c-1.8,0.1-3.2,0.2-4.2,0.4v22.8H326z M331.4,272.6
		c2,0,4-0.2,5.9-0.7c1.9-0.5,3.6-1.2,5-2.3c1.4-1,2.6-2.3,3.5-3.8c0.9-1.5,1.3-3.4,1.3-5.5c0-2.7-0.5-4.8-1.6-6.3s-2.4-2.7-4.1-3.6
		c-1.7-0.9-3.6-1.4-5.7-1.6c-2.1-0.2-4.2-0.4-6.3-0.4h-8.8v23.5c0.4,0.2,1,0.3,1.9,0.4c0.9,0.1,1.8,0.1,2.8,0.2c1,0,2.1,0.1,3.1,0.1
		S330.6,272.6,331.4,272.6z"/>
	<path class="st2" d="M456.3,249.4h-31.5v36.1H408v-86.1h16.9v35.1h31.5v-35.1h16.9v86.1h-16.9V249.4z"/>
	<path class="st2" d="M530.5,266.4h-26.5l-6.5,19.1h-16.9l31-86.7h12.4l31,86.7h-17.7L530.5,266.4z M508.4,252.9h18.5l-6.4-19.2
		l-2.6-13.5h-0.6l-2.6,13.7L508.4,252.9z"/>
	<path class="st2" d="M604.4,214.4H586c-0.3,7.8-0.7,14.9-1.1,21.3c-0.4,6.4-1,12.2-1.7,17.3c-0.7,5.1-1.6,9.7-2.8,13.6
		c-1.1,3.9-2.6,7.3-4.4,10.2c-1.1,1.9-2.4,3.4-3.9,4.7c-1.4,1.2-2.9,2.2-4.5,3c-1.6,0.7-3.1,1.3-4.6,1.5c-1.5,0.3-2.9,0.4-4.2,0.4
		c-1.9,0-3.5-0.1-4.7-0.4c-1.3-0.3-2.5-0.7-3.8-1.3l1.8-14.5c0.5,0.2,1,0.3,1.5,0.4c0.5,0.1,1,0.1,1.5,0.1c1.3,0,2.6-0.3,3.9-1
		c1.3-0.7,2.4-1.8,3.3-3.3c1.2-1.8,2.3-4.4,3.2-7.9c0.9-3.5,1.7-7.9,2.4-13.4c0.7-5.4,1.3-11.9,1.7-19.4c0.4-7.5,0.7-16.3,0.9-26.3
		h50.8v86.1h-16.9V214.4z"/>
	<path class="st2" d="M686.2,237.8l1-11.2h-0.6l-5.8,11.6l-32.1,47.4H636v-86.1h16.9v46.9l-1.2,11.6h0.7l6-11.9l32.1-46.5H703v86.1
		h-16.9V237.8z"/>
	<path class="st2" d="M733.1,199.4v27.5c0,5,1,8.6,2.9,11.1c1.9,2.4,5.1,3.7,9.5,3.7c3.1,0,6-0.4,8.8-1.1c2.7-0.7,4.9-1.8,6.6-3.2
		v-38h16.9v86.1h-16.9v-34.7c-2.1,1.2-5,2.4-8.6,3.4c-3.6,1-7.8,1.5-12.7,1.5c-3.4,0-6.6-0.4-9.4-1.3s-5.3-2.3-7.4-4.2
		c-2.1-1.9-3.7-4.4-4.9-7.4c-1.1-3-1.7-6.6-1.7-10.9v-32.6H733.1z"/>
	<path class="st2" d="M842.7,237.8l1-11.2h-0.6l-5.8,11.6l-32.1,47.4h-12.7v-86.1h16.9v46.9l-1.2,11.6h0.7l6-11.9l32.1-46.5h12.6
		v86.1h-16.9V237.8z"/>
	<path class="st2" d="M924.6,237.8l1-11.2H925l-5.8,11.6l-32.1,47.4h-12.7v-86.1h16.9v46.9l-1.2,11.6h0.7l6-11.9l32.1-46.5h12.6
		v86.1h-16.9V237.8z"/>
</g>
</svg>
