<?xml version="1.0" encoding="utf-8"?>
<!-- Generator: Adobe Illustrator 23.1.0, SVG Export Plug-In . SVG Version: 6.00 Build 0)  -->
<svg version="1.1" id="Layer_1" xmlns="http://www.w3.org/2000/svg" xmlns:xlink="http://www.w3.org/1999/xlink" x="0px" y="0px"
	 viewBox="0 0 500 500" style="enable-background:new 0 0 500 500;" xml:space="preserve">
<style type="text/css">
	.st0{fill:#F88800;}
	.st1{fill:#FFFFFF;}
</style>
<path class="st0" d="M442.7,174.2l-30.5-17.8L412,121c-0.1-18.1-14.7-32.8-32.9-32.9L343.7,88l-17.8-30.6c-9.1-15.6-29.2-21-45-12
	L250.2,63l-30.7-17.6c-15.7-9-35.8-3.6-45,12l-17.9,30.5l-35.3,0.2c-18.2,0.2-32.8,14.8-33,32.9l-0.2,35.4l-30.5,17.8
	c-15.7,9.2-21.1,29.2-12,45l17.5,30.7l-17.5,30.7c-9.1,15.7-3.7,35.8,12,45l30.5,17.8l0.2,35.4c0.2,18.1,14.8,32.8,33,32.9l35.3,0.2
	l17.9,30.6c9.1,15.7,29.2,21,45,12l30.7-17.6l30.7,17.6c5.2,2.9,10.8,4.4,16.4,4.4c11.4,0,22.5-5.9,28.6-16.4l17.8-30.6l35.4-0.2
	c18.2-0.1,32.8-14.8,32.9-32.9l0.2-35.4l30.5-17.8c15.7-9.2,21-29.2,12-45l-17.6-30.7l17.6-30.7
	C463.8,203.5,458.3,183.4,442.7,174.2L442.7,174.2z M376.1,224.8l-63,45.9l24,74c2.1,6.4-0.2,13.5-5.6,17.4c-2.8,2-6,3-9.2,3
	s-6.4-1-9.1-3l-63.1-45.8l-63,45.8c-5.4,4-12.9,4-18.3,0c-5.4-3.9-7.7-11-5.7-17.4l24.1-74l-63.1-45.9c-5.4-3.9-7.8-11-5.6-17.4
	c2.1-6.4,8.1-10.7,14.8-10.7h77.9l24.1-74.1c2.2-6.4,8.1-10.7,14.9-10.7c6.7,0,12.6,4.4,14.8,10.7l24,74.1h78
	c6.7,0,12.7,4.4,14.8,10.7C383.9,213.8,381.5,220.9,376.1,224.8L376.1,224.8z"/>
<path class="st1" d="M376.1,225.2l-63,45.9l24,74c2.1,6.4-0.2,13.5-5.6,17.4c-2.8,2-6,3-9.2,3s-6.4-1-9.1-3l-63.1-45.8l-63,45.8
	c-5.4,4-12.9,4-18.3,0c-5.4-3.9-7.7-11-5.7-17.4l24.1-74l-63.1-45.9c-5.4-3.9-7.8-11-5.6-17.4c2.1-6.4,8.1-10.7,14.8-10.7h77.9
	l24.1-74.1c2.2-6.4,8.1-10.7,14.9-10.7c6.7,0,12.6,4.4,14.8,10.7l24,74.1h78c6.7,0,12.7,4.4,14.8,10.7
	C383.9,214.2,381.5,221.3,376.1,225.2L376.1,225.2z"/>
</svg>
